<?xml version="1.0" encoding="utf-8"?>
<!-- Generator: Adobe Illustrator 24.2.1, SVG Export Plug-In . SVG Version: 6.00 Build 0)  -->
<svg version="1.1" id="Laag_1" xmlns="http://www.w3.org/2000/svg" xmlns:xlink="http://www.w3.org/1999/xlink" x="0px" y="0px"
	 viewBox="0 0 100 130" style="enable-background:new 0 0 100 130;" xml:space="preserve">
<style type="text/css">
	.st0{fill:#E40521;}
	.st1{fill:#01438F;}
	.st2{fill:#FFFFFF;}
</style>
<polygon class="st0" points="30.62,17.77 5,90.44 32.65,90.44 37.13,75.4 62.13,75.4 66.35,90.45 95,90.45 83.57,58 41.39,58 
	54.31,17.77 "/>
<polygon class="st1" points="66.78,5 52.5,49.7 81.35,49.7 "/>
<rect x="5" y="97.98" class="st1" width="90" height="23.5"/>
<g>
	<path class="st2" d="M36.35,116.16v-12.88h2.29v12.88H36.35z"/>
	<path class="st2" d="M51.04,103.97l-0.94,1.89c-0.51-0.51-1.33-0.76-2.46-0.76c-1.07,0-1.95,0.45-2.64,1.35
		c-0.69,0.9-1.03,2.04-1.03,3.42s0.32,2.47,0.95,3.28s1.48,1.21,2.54,1.21c1.21,0,2.16-0.43,2.85-1.3l1.06,1.85
		c-0.93,0.99-2.3,1.49-4.1,1.49s-3.2-0.59-4.19-1.78s-1.49-2.8-1.49-4.84c0-1.9,0.55-3.5,1.66-4.78c1.1-1.28,2.52-1.92,4.24-1.92
		C48.98,103.07,50.16,103.37,51.04,103.97z"/>
	<path class="st2" d="M59.37,105.32v10.85h-2.29v-10.85h-4.1v-2.03h10.66v2.03H59.37z"/>
</g>
</svg>
